<?xml version="1.0" standalone="no"?>
<!DOCTYPE svg PUBLIC "-//W3C//DTD SVG 20010904//EN"
 "http://www.w3.org/TR/2001/REC-SVG-20010904/DTD/svg10.dtd">
<svg version="1.0" xmlns="http://www.w3.org/2000/svg"
 width="850.000000pt" height="1275.000000pt" viewBox="0 0 850.000000 1275.000000"
 preserveAspectRatio="xMidYMid meet">

<g transform="translate(0.000000,1275.000000) scale(0.100000,-0.100000)"
fill="#000000" stroke="none">
<path d="M276 12547 c-24 -8 -51 -26 -70 -50 l-31 -39 3 -5771 c1 -3175 5
-5926 9 -6115 l6 -342 25 -38 c14 -23 38 -44 58 -51 52 -19 7896 -3 7941 16
18 7 45 32 60 55 l28 42 -3 2990 c-6 6720 -13 9200 -25 9234 -6 17 -17 32 -24
32 -7 0 -13 6 -13 13 0 7 -15 18 -33 25 -48 17 -7874 16 -7931 -1z m4394 -397
l0 -151 1533 2 c1278 1 1532 -1 1534 -13 1 -7 4 -2550 6 -5650 l4 -5638 -1519
-1 c-835 -1 -1524 -2 -1530 -3 -10 -1 -13 -38 -15 -144 -1 -79 -3 -146 -6
-148 -2 -2 -199 -4 -438 -5 l-434 0 -3 150 -3 150 -1523 -6 c-905 -4 -1525 -2
-1528 3 -4 5 -9 2550 -13 5657 l-8 5647 1532 0 1531 0 0 150 0 150 440 0 440
0 0 -150z m1358 -11477 c-75 -2 -201 -2 -280 0 -79 1 -17 3 137 3 154 0 218
-2 143 -3z"/>
<path d="M3850 12120 c0 -119 0 -120 23 -116 20 3 22 10 25 66 2 35 1 88 -3
117 -5 43 -10 53 -26 53 -18 0 -19 -8 -19 -120z m27 78 c-3 -8 -6 -5 -6 6 -1
11 2 17 5 13 3 -3 4 -12 1 -19z"/>
<path d="M3950 12121 l0 -118 25 0 25 0 0 118 0 119 -25 0 -25 0 0 -119z"/>
<path d="M4060 12130 c0 -60 -1 -113 -2 -117 -2 -3 7 -8 20 -9 22 -4 22 -3 22
116 0 113 -1 120 -20 120 -19 0 -20 -7 -20 -110z"/>
<path d="M4160 12120 l0 -120 25 0 25 0 0 120 0 120 -25 0 -25 0 0 -120z"/>
<path d="M4270 12125 c0 -96 3 -115 15 -115 8 0 17 -1 20 -2 3 -2 7 50 8 115
2 115 2 117 -20 117 -23 0 -23 -2 -23 -115z"/>
<path d="M4372 12123 c3 -102 5 -116 21 -119 15 -2 17 9 17 117 0 113 -1 119
-20 119 -20 0 -21 -5 -18 -117z"/>
<path d="M4470 12126 c0 -88 3 -115 14 -119 8 -3 17 -3 20 0 3 4 6 57 6 120 0
106 -1 113 -20 113 -19 0 -20 -7 -20 -114z"/>
<path d="M4572 12123 c3 -102 5 -116 21 -119 15 -2 17 9 17 117 0 113 -1 119
-20 119 -20 0 -21 -5 -18 -117z"/>
<path d="M790 11890 c0 -27 4 -50 9 -50 17 0 81 67 81 84 0 12 -10 16 -45 16
l-45 0 0 -50z"/>
<path d="M947 11933 c-4 -3 -7 -12 -7 -20 0 -34 -53 -96 -101 -116 l-49 -22 3
-475 c1 -290 3 -369 4 -202 l3 272 615 0 c485 0 615 -3 616 -12 0 -7 4 -4 9 7
5 11 9 145 9 298 l1 277 -548 0 c-302 0 -552 -3 -555 -7z"/>
<path d="M2106 11933 c-9 -9 -6 -521 3 -568 5 -22 9 -30 10 -18 l1 22 537 1
c295 0 539 2 541 5 3 3 11 0 19 -6 11 -10 13 37 13 280 l0 291 -559 0 c-307 0
-561 -3 -565 -7z"/>
<path d="M3297 11933 c-4 -3 -7 -125 -7 -270 l0 -263 940 0 940 0 0 270 0 270
-933 0 c-514 0 -937 -3 -940 -7z"/>
<path d="M5230 11649 c0 -189 3 -288 10 -284 5 3 254 7 552 8 472 2 545 0 555
-13 10 -12 12 47 13 283 l0 297 -565 0 -565 0 0 -291z"/>
<path d="M6420 11643 c0 -164 4 -292 8 -285 7 9 142 12 630 12 l622 1 0 284 0
285 -630 0 -630 0 0 -297z"/>
<path d="M4178 11333 c12 -2 32 -2 45 0 12 2 2 4 -23 4 -25 0 -35 -2 -22 -4z"/>
<path d="M4548 11333 c123 -2 321 -2 440 0 119 1 19 2 -223 2 -242 0 -340 -1
-217 -2z"/>
<path d="M2111 10915 c-6 -621 -6 -753 -1 -757 3 -2 960 -2 2128 0 l2122 3 0
292 0 292 -1019 0 -1019 0 -6 -27 c-7 -38 -44 -68 -81 -68 -37 0 -81 36 -90
73 -5 19 -12 23 -33 21 -19 -2 -1757 -6 -1979 -4 -10 0 -13 69 -16 293 -2 285
-2 282 -6 -118z m4226 -587 c-3 -8 -6 -5 -6 6 -1 11 2 17 5 13 3 -3 4 -12 1
-19z"/>
<path d="M2033 11270 c0 -25 2 -35 4 -22 2 12 2 32 0 45 -2 12 -4 2 -4 -23z"/>
<path d="M6420 10442 l0 -333 630 2 630 1 0 318 0 319 -622 1 c-478 0 -624 3
-630 13 -4 7 -8 -138 -8 -321z"/>
<path d="M792 10425 l3 -320 240 0 c132 0 414 1 628 3 l387 2 0 314 c0 199 -4
317 -10 321 -5 3 -10 3 -10 -2 0 -4 -279 -6 -620 -3 l-620 5 2 -320z"/>
<path d="M2153 10083 c48 -2 125 -2 170 0 45 1 6 3 -88 3 -93 0 -130 -2 -82
-3z"/>
<path d="M2498 10083 c12 -2 32 -2 45 0 12 2 2 4 -23 4 -25 0 -35 -2 -22 -4z"/>
<path d="M2838 10083 c23 -2 61 -2 85 0 23 2 4 4 -43 4 -47 0 -66 -2 -42 -4z"/>
<path d="M3098 10083 c34 -2 90 -2 125 0 34 2 6 3 -63 3 -69 0 -97 -1 -62 -3z"/>
<path d="M3498 10072 c20 -22 25 -21 16 2 -3 9 -12 16 -20 16 -11 0 -10 -4 4
-18z"/>
<path d="M3618 10083 c12 -2 32 -2 45 0 12 2 2 4 -23 4 -25 0 -35 -2 -22 -4z"/>
<path d="M4598 10083 c23 -2 61 -2 85 0 23 2 4 4 -43 4 -47 0 -66 -2 -42 -4z"/>
<path d="M5044 10068 l-19 -23 23 19 c21 18 27 26 19 26 -2 0 -12 -10 -23 -22z"/>
<path d="M792 10055 c0 -16 2 -22 5 -12 2 9 2 23 0 30 -3 6 -5 -1 -5 -18z"/>
<path d="M4894 10008 l-19 -23 23 19 c21 18 27 26 19 26 -2 0 -12 -10 -23 -22z"/>
<path d="M3460 9996 c0 -2 8 -10 18 -17 15 -13 16 -12 3 4 -13 16 -21 21 -21
13z"/>
<path d="M793 9910 c0 -25 2 -35 4 -22 2 12 2 32 0 45 -2 12 -4 2 -4 -23z"/>
<path d="M3647 9926 c15 -13 30 -23 32 -20 5 4 -41 43 -52 44 -4 0 5 -11 20
-24z"/>
<path d="M3520 9936 c0 -2 8 -10 18 -17 15 -13 16 -12 3 4 -13 16 -21 21 -21
13z"/>
<path d="M4796 9924 c-5 -14 -4 -15 9 -4 17 14 19 20 6 20 -5 0 -12 -7 -15
-16z"/>
<path d="M4760 9899 c0 -5 5 -7 10 -4 6 3 10 8 10 11 0 2 -4 4 -10 4 -5 0 -10
-5 -10 -11z"/>
<path d="M4859 9873 c-13 -16 -12 -17 4 -4 16 13 21 21 13 21 -2 0 -10 -8 -17
-17z"/>
<path d="M4720 9870 c-8 -5 -10 -10 -5 -10 6 0 17 5 25 10 8 5 11 10 5 10 -5
0 -17 -5 -25 -10z"/>
<path d="M4660 9835 c-14 -8 -20 -14 -14 -15 5 0 19 7 30 15 24 18 16 19 -16
0z"/>
<path d="M3640 9830 c0 -5 5 -10 11 -10 5 0 7 5 4 10 -3 6 -8 10 -11 10 -2 0
-4 -4 -4 -10z"/>
<path d="M4779 9813 c-13 -17 -13 -17 6 -3 11 8 22 16 24 17 2 2 0 3 -6 3 -6
0 -17 -8 -24 -17z"/>
<path d="M4610 9810 c-9 -6 -10 -10 -3 -10 6 0 15 5 18 10 8 12 4 12 -15 0z"/>
<path d="M3985 9750 c11 -5 27 -9 35 -9 9 0 8 4 -5 9 -11 5 -27 9 -35 9 -9 0
-8 -4 5 -9z"/>
<path d="M4388 9733 c6 -2 18 -2 25 0 6 3 1 5 -13 5 -14 0 -19 -2 -12 -5z"/>
<path d="M4630 9730 c-8 -5 -10 -10 -5 -10 6 0 17 5 25 10 8 5 11 10 5 10 -5
0 -17 -5 -25 -10z"/>
<path d="M4128 9723 c6 -2 18 -2 25 0 6 3 1 5 -13 5 -14 0 -19 -2 -12 -5z"/>
<path d="M3928 9683 c7 -3 16 -2 19 1 4 3 -2 6 -13 5 -11 0 -14 -3 -6 -6z"/>
<path d="M4478 9673 c7 -3 16 -2 19 1 4 3 -2 6 -13 5 -11 0 -14 -3 -6 -6z"/>
<path d="M4008 9663 c7 -3 16 -2 19 1 4 3 -2 6 -13 5 -11 0 -14 -3 -6 -6z"/>
<path d="M4048 9653 c6 -2 18 -2 25 0 6 3 1 5 -13 5 -14 0 -19 -2 -12 -5z"/>
<path d="M4128 9643 c6 -2 18 -2 25 0 6 3 1 5 -13 5 -14 0 -19 -2 -12 -5z"/>
<path d="M4288 9643 c18 -2 45 -2 60 0 15 2 0 4 -33 4 -33 0 -45 -2 -27 -4z"/>
<path d="M790 9165 c0 -191 4 -334 9 -327 7 12 583 14 3445 15 l3436 2 0 315
0 315 -3437 -3 c-2816 -3 -3438 -1 -3444 10 -5 7 -9 -140 -9 -327z"/>
<path d="M7673 8790 c0 -25 2 -35 4 -22 2 12 2 32 0 45 -2 12 -4 2 -4 -23z"/>
<path d="M7670 8290 l0 -60 -772 0 c-425 0 -1967 -3 -3425 -7 -2127 -5 -2656
-3 -2668 7 -13 11 -15 -23 -15 -314 0 -307 1 -327 18 -322 9 3 1556 6 3437 8
l3420 3 0 -315 0 -315 -1309 -3 c-1172 -3 -1311 -1 -1332 13 -18 12 -11 -4 30
-67 94 -145 149 -302 163 -463 l6 -75 1228 0 1229 0 0 985 c0 542 -2 985 -5
985 -3 0 -5 -27 -5 -60z m-2513 -1502 c-3 -8 -6 -5 -6 6 -1 11 2 17 5 13 3 -3
4 -12 1 -19z"/>
<path d="M4243 7373 c9 -2 23 -2 30 0 6 3 -1 5 -18 5 -16 0 -22 -2 -12 -5z"/>
<path d="M4108 7363 c7 -3 16 -2 19 1 4 3 -2 6 -13 5 -11 0 -14 -3 -6 -6z"/>
<path d="M4015 7350 c-25 -11 1 -11 35 0 20 6 21 8 5 8 -11 0 -29 -3 -40 -8z"/>
<path d="M3878 7303 c7 -3 16 -2 19 1 4 3 -2 6 -13 5 -11 0 -14 -3 -6 -6z"/>
<path d="M4408 7273 c6 -2 18 -2 25 0 6 3 1 5 -13 5 -14 0 -19 -2 -12 -5z"/>
<path d="M3775 7260 c-3 -6 1 -7 9 -4 18 7 21 14 7 14 -6 0 -13 -4 -16 -10z"/>
<path d="M4680 7266 c0 -3 9 -10 20 -16 11 -6 20 -8 20 -6 0 3 -9 10 -20 16
-11 6 -20 8 -20 6z"/>
<path d="M3950 7250 c-9 -6 -10 -10 -3 -10 6 0 15 5 18 10 8 12 4 12 -15 0z"/>
<path d="M4525 7240 c11 -5 27 -9 35 -9 9 0 8 4 -5 9 -11 5 -27 9 -35 9 -9 0
-8 -4 5 -9z"/>
<path d="M4580 7226 c0 -2 7 -7 16 -10 8 -3 12 -2 9 4 -6 10 -25 14 -25 6z"/>
<path d="M3686 7205 c-11 -8 -15 -15 -9 -15 6 0 16 7 23 15 16 19 11 19 -14 0z"/>
<path d="M4770 7216 c0 -2 8 -10 18 -17 15 -13 16 -12 3 4 -13 16 -21 21 -21
13z"/>
<path d="M3790 7180 c-13 -8 -13 -10 2 -10 9 0 20 5 23 10 8 13 -5 13 -25 0z"/>
<path d="M4720 7150 c0 -5 5 -10 11 -10 5 0 7 5 4 10 -3 6 -8 10 -11 10 -2 0
-4 -4 -4 -10z"/>
<path d="M4865 7140 c10 -11 20 -20 23 -20 3 0 -3 9 -13 20 -10 11 -20 20 -23
20 -3 0 3 -9 13 -20z"/>
<path d="M3599 7133 c-13 -16 -12 -17 4 -4 9 7 17 15 17 17 0 8 -8 3 -21 -13z"/>
<path d="M4817 7079 c7 -7 15 -10 18 -7 3 3 -2 9 -12 12 -14 6 -15 5 -6 -5z"/>
<path d="M4940 7066 c0 -2 8 -10 18 -17 15 -13 16 -12 3 4 -13 16 -21 21 -21
13z"/>
<path d="M3551 6984 c-61 -64 -113 -144 -148 -223 -14 -31 -29 -65 -34 -76
-15 -33 -47 -176 -55 -242 l-7 -63 421 0 420 0 30 30 c17 17 40 30 52 30 28 0
76 -26 83 -45 6 -13 58 -15 430 -15 l424 0 -4 53 c-13 148 -78 330 -164 458
-46 68 -97 120 -84 86 4 -9 -137 -12 -666 -10 -369 2 -675 6 -681 9 -5 4 2 18
18 35 15 16 25 29 23 29 -3 0 -29 -25 -58 -56z"/>
<path d="M796 6970 c-9 -21 -3 -596 7 -592 4 1 556 2 1227 2 l1220 0 0 28 c0
55 48 259 77 329 29 68 86 174 118 218 14 20 12 20 -478 17 -1504 -7 -2157 -6
-2161 3 -2 6 -7 3 -10 -5z"/>
<path d="M4311 6293 c-10 -26 -10 -27 4 -9 8 11 15 23 15 28 0 15 -7 8 -19
-19z"/>
<path d="M5152 6300 c0 -14 2 -19 5 -12 2 6 2 18 0 25 -3 6 -5 1 -5 -13z"/>
<path d="M6258 6313 c12 -2 32 -2 45 0 12 2 2 4 -23 4 -25 0 -35 -2 -22 -4z"/>
<path d="M6438 6313 c23 -2 61 -2 85 0 23 2 4 4 -43 4 -47 0 -66 -2 -42 -4z"/>
<path d="M7138 6313 c12 -2 32 -2 45 0 12 2 2 4 -23 4 -25 0 -35 -2 -22 -4z"/>
<path d="M7533 6313 c9 -2 23 -2 30 0 6 3 -1 5 -18 5 -16 0 -22 -2 -12 -5z"/>
<path d="M7603 6313 c9 -2 23 -2 30 0 6 3 -1 5 -18 5 -16 0 -22 -2 -12 -5z"/>
<path d="M7656 6313 c5 -5 12 -12 16 -18 4 -6 8 -2 8 8 0 9 -7 17 -17 17 -9 0
-12 -3 -7 -7z"/>
<path d="M937 6303 c79 -2 207 -2 285 0 79 1 15 3 -142 3 -157 0 -221 -2 -143
-3z"/>
<path d="M1813 6303 c9 -2 25 -2 35 0 9 3 1 5 -18 5 -19 0 -27 -2 -17 -5z"/>
<path d="M1933 6303 c15 -2 37 -2 50 0 12 2 0 4 -28 4 -27 0 -38 -2 -22 -4z"/>
<path d="M3235 6300 c3 -5 8 -10 11 -10 2 0 4 5 4 10 0 6 -5 10 -11 10 -5 0
-7 -4 -4 -10z"/>
<path d="M3323 6265 c0 -27 2 -38 4 -22 2 15 2 37 0 50 -2 12 -4 0 -4 -28z"/>
<path d="M3242 6260 c0 -14 2 -19 5 -12 2 6 2 18 0 25 -3 6 -5 1 -5 -13z"/>
<path d="M7674 6155 c0 -71 1 -99 3 -62 2 37 2 96 0 130 -2 34 -3 4 -3 -68z"/>
<path d="M5151 6254 c0 -11 3 -14 6 -6 3 7 2 16 -1 19 -3 4 -6 -2 -5 -13z"/>
<path d="M4228 6243 c6 -2 18 -2 25 0 6 3 1 5 -13 5 -14 0 -19 -2 -12 -5z"/>
<path d="M3252 6185 c0 -16 2 -22 5 -12 2 9 2 23 0 30 -3 6 -5 -1 -5 -18z"/>
<path d="M5216 6194 c-4 -9 -4 -19 -1 -22 2 -3 7 3 11 12 4 9 4 19 1 22 -2 3
-7 -3 -11 -12z"/>
<path d="M3331 6174 c0 -11 3 -14 6 -6 3 7 2 16 -1 19 -3 4 -6 -2 -5 -13z"/>
<path d="M5131 6144 c0 -11 3 -14 6 -6 3 7 2 16 -1 19 -3 4 -6 -2 -5 -13z"/>
<path d="M3351 6084 c0 -11 3 -14 6 -6 3 7 2 16 -1 19 -3 4 -6 -2 -5 -13z"/>
<path d="M3291 6020 c0 -8 4 -22 9 -30 12 -18 12 -2 0 25 -6 13 -9 15 -9 5z"/>
<path d="M3310 5961 c0 -6 4 -13 10 -16 6 -3 7 1 4 9 -7 18 -14 21 -14 7z"/>
<path d="M7670 5845 l0 -105 -1197 -2 c-659 -2 -1252 -3 -1318 -3 l-120 0 -95
-96 c-172 -175 -349 -266 -582 -300 -155 -23 -370 10 -518 79 -59 28 -188 105
-200 121 -3 3 -27 26 -55 51 -27 25 -72 71 -98 102 -41 48 -52 56 -67 48 -12
-6 -486 -9 -1319 -7 -1293 2 -1300 2 -1305 -18 -8 -27 -7 -565 0 -592 4 -13 9
-21 13 -19 3 2 1547 6 3430 7 3396 3 3424 3 3432 -16 4 -11 8 177 8 418 1 240
-1 437 -4 437 -3 0 -5 -47 -5 -105z"/>
<path d="M3421 5910 c14 -31 19 -36 19 -24 0 6 -7 19 -16 30 -14 18 -14 18 -3
-6z"/>
<path d="M5110 5869 c0 -5 5 -7 10 -4 6 3 10 8 10 11 0 2 -4 4 -10 4 -5 0 -10
-5 -10 -11z"/>
<path d="M3406 5777 c3 -10 9 -15 12 -12 3 3 0 11 -7 18 -10 9 -11 8 -5 -6z"/>
<path d="M3500 5781 c0 -6 4 -13 10 -16 6 -3 7 1 4 9 -7 18 -14 21 -14 7z"/>
<path d="M3539 5723 c75 -105 269 -237 419 -286 313 -103 668 -21 908 210 61
59 93 103 75 103 -5 0 -13 -5 -16 -10 -8 -14 -1335 -11 -1352 3 -9 6 -13 5
-13 -4 0 -10 -3 -10 -12 -1 -23 23 -29 12 -9 -15z m136 -103 c3 -6 -1 -7 -9
-4 -18 7 -21 14 -7 14 6 0 13 -4 16 -10z"/>
<path d="M7673 5030 c0 -25 2 -35 4 -22 2 12 2 32 0 45 -2 12 -4 2 -4 -23z"/>
<path d="M7674 4765 c0 -82 2 -115 3 -72 2 43 2 110 0 150 -1 40 -3 5 -3 -78z"/>
<path d="M7670 4535 l0 -55 -3422 -1 c-1883 -1 -3429 -1 -3436 0 -9 2 -12 -72
-11 -341 1 -189 4 -331 6 -317 l4 26 3072 6 c1690 3 3235 5 3434 4 l363 -2 0
368 c0 202 -2 367 -5 367 -3 0 -5 -25 -5 -55z"/>
<path d="M803 3750 c0 -25 2 -35 4 -22 2 12 2 32 0 45 -2 12 -4 2 -4 -23z"/>
<path d="M804 3030 c-1 -289 2 -506 5 -483 l6 42 615 3 c579 3 616 4 625 21 9
17 46 18 675 18 366 0 670 3 675 7 6 4 30 32 54 62 336 418 893 510 1324 218
75 -51 178 -148 234 -220 l44 -58 682 -2 c672 -3 681 -3 687 -23 5 -20 13 -20
633 -20 l627 0 0 315 0 315 -537 -3 c-296 -1 -1843 -2 -3438 -2 l-2900 0 -5
167 c-3 93 -6 -68 -6 -357z m3041 0 c3 -5 1 -10 -4 -10 -6 0 -11 5 -11 10 0 6
2 10 4 10 3 0 8 -4 11 -10z m1100 -210 c10 -11 16 -20 13 -20 -3 0 -13 9 -23
20 -10 11 -16 20 -13 20 3 0 13 -9 23 -20z"/>
<path d="M4083 3015 c-107 -19 -248 -76 -342 -139 -78 -51 -251 -214 -251
-235 0 -10 169 -12 749 -9 l749 3 -19 25 c-116 158 -330 299 -528 346 -93 22
-259 26 -358 9z m74 -21 c-3 -3 -12 -4 -19 -1 -8 3 -5 6 6 6 11 1 17 -2 13 -5z"/>
<path d="M4378 2563 c34 -2 90 -2 125 0 34 2 6 3 -63 3 -69 0 -97 -1 -62 -3z"/>
<path d="M4678 2563 c23 -2 61 -2 85 0 23 2 4 4 -43 4 -47 0 -66 -2 -42 -4z"/>
<path d="M4908 2563 c18 -2 45 -2 60 0 15 2 0 4 -33 4 -33 0 -45 -2 -27 -4z"/>
<path d="M5083 2563 c9 -2 23 -2 30 0 6 3 -1 5 -18 5 -16 0 -22 -2 -12 -5z"/>
<path d="M5338 2563 c34 -2 90 -2 125 0 34 2 6 3 -63 3 -69 0 -97 -1 -62 -3z"/>
<path d="M5738 2563 c78 -2 206 -2 285 0 78 1 14 3 -143 3 -157 0 -221 -2
-142 -3z"/>
<path d="M6268 2563 c12 -2 30 -2 40 0 9 3 -1 5 -23 4 -22 0 -30 -2 -17 -4z"/>
<path d="M6338 2563 c7 -3 16 -2 19 1 4 3 -2 6 -13 5 -11 0 -14 -3 -6 -6z"/>
<path d="M2124 2230 c0 -129 2 -182 3 -117 2 64 2 170 0 235 -1 64 -3 11 -3
-118z"/>
<path d="M803 2270 c0 -47 2 -66 4 -42 2 23 2 61 0 85 -2 23 -4 4 -4 -43z"/>
<path d="M800 1659 l0 -324 627 2 628 3 0 312 0 313 -613 -3 c-468 -3 -616 -1
-627 8 -13 11 -15 -29 -15 -311z"/>
<path d="M2122 1443 c2 -296 4 -440 5 -321 l3 218 555 -3 c548 -2 554 -2 557
18 3 20 13 20 997 25 1061 5 993 8 1007 -38 2 -7 7 -11 12 -8 13 8 1086 11
1100 3 9 -7 12 59 12 318 0 193 -4 324 -9 321 -5 -4 -464 -6 -1019 -6 l-1010
-1 -5 -29 c-9 -44 -41 -70 -85 -70 -44 0 -69 21 -81 66 l-7 29 -1007 2 c-553
1 -1011 4 -1017 8 -7 4 -9 -164 -8 -532z"/>
<path d="M6430 1650 c0 -179 4 -319 8 -312 7 9 139 12 618 10 360 -1 614 -6
622 -11 9 -8 12 57 12 314 l0 324 -630 0 -630 0 0 -325z"/>
<path d="M5167 1300 c3 -11 7 -20 9 -20 2 0 4 9 4 20 0 11 -4 20 -9 20 -5 0
-7 -9 -4 -20z"/>
<path d="M5250 1232 l5 -87 3 79 c2 44 -1 83 -5 87 -4 4 -6 -31 -3 -79z"/>
<path d="M3313 1270 c0 -25 2 -35 4 -22 2 12 2 32 0 45 -2 12 -4 2 -4 -23z"/>
<path d="M3313 1110 c0 -25 2 -35 4 -22 2 12 2 32 0 45 -2 12 -4 2 -4 -23z"/>
<path d="M5173 1030 c0 -25 2 -35 4 -22 2 12 2 32 0 45 -2 12 -4 2 -4 -23z"/>
<path d="M5254 915 c0 -88 2 -123 3 -77 2 46 2 118 0 160 -1 42 -3 5 -3 -83z"/>
<path d="M7682 970 c0 -14 2 -19 5 -12 2 6 2 18 0 25 -3 6 -5 1 -5 -13z"/>
<path d="M6431 954 c0 -11 3 -14 6 -6 3 7 2 16 -1 19 -3 4 -6 -2 -5 -13z"/>
<path d="M808 933 c7 -3 16 -2 19 1 4 3 -2 6 -13 5 -11 0 -14 -3 -6 -6z"/>
<path d="M3313 870 c0 -25 2 -35 4 -22 2 12 2 32 0 45 -2 12 -4 2 -4 -23z"/>
<path d="M7683 875 c0 -22 2 -30 4 -17 2 12 2 30 0 40 -3 9 -5 -1 -4 -23z"/>
<path d="M5172 860 c0 -19 2 -27 5 -17 2 9 2 25 0 35 -3 9 -5 1 -5 -18z"/>
<path d="M925 860 c3 -5 8 -10 11 -10 2 0 4 5 4 10 0 6 -5 10 -11 10 -5 0 -7
-4 -4 -10z"/>
<path d="M802 823 c1 -37 1 -38 5 -5 4 29 6 31 26 21 21 -10 21 -10 3 5 -30
24 -36 20 -34 -21z"/>
<path d="M2123 790 c0 -25 2 -35 4 -22 2 12 2 32 0 45 -2 12 -4 2 -4 -23z"/>
<path d="M5171 804 c0 -11 3 -14 6 -6 3 7 2 16 -1 19 -3 4 -6 -2 -5 -13z"/>
<path d="M881 790 c0 -8 4 -22 9 -30 12 -18 12 -2 0 25 -6 13 -9 15 -9 5z"/>
<path d="M961 774 c0 -11 3 -14 6 -6 3 7 2 16 -1 19 -3 4 -6 -2 -5 -13z"/>
<path d="M3311 774 c0 -11 3 -14 6 -6 3 7 2 16 -1 19 -3 4 -6 -2 -5 -13z"/>
<path d="M6430 770 c0 -5 5 -10 11 -10 5 0 7 5 4 10 -3 6 -8 10 -11 10 -2 0
-4 -4 -4 -10z"/>
<path d="M4898 763 c12 -2 32 -2 45 0 12 2 2 4 -23 4 -25 0 -35 -2 -22 -4z"/>
<path d="M5938 763 c12 -2 32 -2 45 0 12 2 2 4 -23 4 -25 0 -35 -2 -22 -4z"/>
<path d="M6733 763 c9 -2 25 -2 35 0 9 3 1 5 -18 5 -19 0 -27 -2 -17 -5z"/>
<path d="M3860 575 c0 -108 1 -115 20 -115 19 0 20 7 20 115 0 108 -1 115 -20
115 -19 0 -20 -7 -20 -115z"/>
<path d="M3950 575 l0 -115 24 0 c30 0 32 11 28 138 -3 90 -4 92 -28 92 l-24
0 0 -115z"/>
<path d="M4060 575 l0 -115 25 0 25 0 0 115 0 115 -25 0 -25 0 0 -115z"/>
<path d="M4163 575 l2 -115 28 0 27 0 0 115 0 115 -30 0 -29 0 2 -115z"/>
<path d="M4274 674 c3 -9 6 -60 6 -115 0 -92 1 -99 20 -99 19 0 20 7 20 115
l0 115 -26 0 c-20 0 -25 -4 -20 -16z"/>
<path d="M4380 575 c0 -108 1 -115 20 -115 19 0 20 7 20 115 0 108 -1 115 -20
115 -19 0 -20 -7 -20 -115z"/>
<path d="M4480 575 c0 -108 1 -115 20 -115 19 0 20 7 20 115 0 108 -1 115 -20
115 -19 0 -20 -7 -20 -115z"/>
<path d="M4580 575 c0 -115 0 -115 24 -115 18 0 23 5 21 18 -2 9 -4 61 -4 115
-1 90 -2 97 -21 97 -19 0 -20 -7 -20 -115z"/>
</g>
</svg>
